<svg width="198" height="192" viewBox="0 0 198 192" fill="none" xmlns="http://www.w3.org/2000/svg">
<rect width="185.725" height="191.027" rx="92.8624" transform="matrix(-3.56956e-10 0.999999 -0.999995 -0.00309818 194.271 3.43164)" fill="#00072B"/>
<path d="M86.6903 115.81C100.012 104.513 132.546 93.3724 136.347 70.6127C138.776 45.5489 122.201 34.7931 104.301 35.0682C113.391 35.7594 129.866 40.3795 130.541 60.4193C131.608 92.0656 91.8987 95.1214 77.8994 103.443C71.8182 107.058 66.7615 114.198 65.7719 116.669C65.4146 123.357 66.8039 136.768 67.8 143.142C68.7331 150.203 75.156 147.578 74.5957 143.548C73.8285 138.029 78.2498 122.969 86.6903 115.81Z" fill="white"/>
<path d="M105.775 130.003C116.266 114.027 147.11 90.4133 143.902 65.2109C140.39 37.6265 110.964 23.3407 88.9804 33.2434C98.8049 31.2189 127.457 37.2081 134.531 58.1798C145.703 91.2976 103.259 108.034 91.1072 121.071C84.4585 128.204 83.7587 134.247 83.0794 136.339C84.8246 143.514 91.4127 158.176 94.4886 164.61C97.7159 171.788 103.67 167.068 101.799 162.979C99.2361 157.38 99.1278 140.125 105.775 130.003Z" fill="white"/>
<path d="M85.0868 35.173C68.8101 44.6536 56.3809 91.7631 53.5366 117.185C52.6869 123.394 58.7494 122.565 59.2109 119.015C59.8427 114.153 67.0974 102.31 75.9265 98.0663C89.8613 91.3682 120.069 89.0018 128.587 70.4748C140.576 38.8849 107.476 22.1324 85.0868 35.173Z" fill="white"/>
<path d="M109.222 68.7762C102.736 72.4515 84.1433 76.7728 80.432 80.0488C87.6326 51.8689 95.4474 46.2895 106.723 48.1908C119.254 50.3037 116.306 65.2887 109.222 68.7762Z" fill="#00072B"/>
</svg>
